<?xml version="1.0" standalone="no"?>
<!DOCTYPE svg PUBLIC "-//W3C//DTD SVG 20010904//EN"
 "http://www.w3.org/TR/2001/REC-SVG-20010904/DTD/svg10.dtd">
<svg version="1.0" xmlns="http://www.w3.org/2000/svg"
 width="700.000000pt" height="700.000000pt" viewBox="0 0 700.000000 700.000000"
 preserveAspectRatio="xMidYMid meet">
<metadata>
Created by potrace 1.11, written by Peter Selinger 2001-2013
</metadata>
<g transform="translate(0.000000,700.000000) scale(0.100000,-0.100000)"
fill="#000000" stroke="none">
<path d="M198 6909 c-83 -19 -166 -96 -188 -175 -16 -56 -8 -140 18 -190 11
-21 93 -111 181 -199 89 -88 161 -163 161 -167 0 -4 -11 -23 -24 -43 -28 -40
-42 -122 -31 -183 5 -34 113 -235 330 -617 12 -22 64 -114 115 -205 50 -91
105 -186 121 -213 16 -26 29 -50 29 -52 0 -3 27 -52 60 -108 33 -57 60 -108
60 -113 0 -6 -13 -23 -29 -38 -47 -45 -74 -119 -69 -190 2 -34 13 -79 23 -101
13 -26 166 -186 448 -469 l430 -428 -811 -812 c-574 -575 -817 -824 -832 -855
-29 -58 -30 -151 -2 -214 28 -63 1371 -1402 1434 -1431 60 -27 159 -26 215 3
29 14 313 292 852 832 l809 810 803 -805 c577 -578 817 -813 853 -833 67 -37
169 -39 233 -5 52 27 1390 1367 1418 1419 12 24 21 64 23 106 7 123 43 82
-853 976 -443 442 -805 806 -805 810 0 3 192 197 426 431 248 248 434 441 446
464 47 91 30 207 -42 289 l-40 45 165 293 c91 162 169 301 174 309 6 8 19 31
29 50 11 19 89 159 175 311 85 152 162 296 170 319 20 61 14 130 -18 196 l-27
56 169 171 c150 152 172 178 188 226 40 121 -16 255 -129 313 -59 31 -165 30
-225 -1 -25 -13 -113 -92 -203 -182 -88 -87 -163 -159 -167 -159 -5 0 -29 12
-54 26 -64 35 -138 41 -203 17 -43 -17 -673 -366 -1239 -688 l-40 -23 -44 39
c-80 71 -188 86 -284 38 -27 -14 -188 -167 -467 -445 -234 -233 -428 -424
-432 -424 -4 0 -198 191 -432 425 -466 467 -467 468 -581 468 -68 1 -129 -25
-182 -75 l-32 -31 -63 35 c-89 49 -133 74 -388 218 -124 70 -245 138 -270 152
-25 14 -153 86 -285 160 -132 74 -257 140 -277 147 -73 24 -170 11 -222 -30
l-27 -21 -167 167 c-108 109 -181 174 -207 185 -51 22 -119 30 -167 19z"/>
</g>
</svg>
